<svg width="71" height="89" viewBox="0 0 71 89" fill="none" xmlns="http://www.w3.org/2000/svg">
<g clip-path="url(#clip0_243_37)">
<path d="M22.9165 18.3333V13.75C22.9165 12.5344 23.3994 11.3686 24.2589 10.5091C25.1185 9.64955 26.2843 9.16667 27.4998 9.16667H43.5415C44.7571 9.16667 45.9229 9.64955 46.7824 10.5091C47.6419 11.3686 48.1248 12.5344 48.1248 13.75V41.25C48.1248 42.4656 47.6419 43.6314 46.7824 44.4909C45.9229 45.3504 44.7571 45.8333 43.5415 45.8333H27.4998C26.2843 45.8333 25.1185 45.3504 24.2589 44.4909C23.3994 43.6314 22.9165 42.4656 22.9165 41.25V36.6667" stroke="#C0A080" stroke-width="4" stroke-linecap="round" stroke-linejoin="round"/>
<path d="M34.375 27.5H6.875L13.75 20.625" stroke="#C0A080" stroke-width="4" stroke-linecap="round" stroke-linejoin="round"/>
<path d="M13.75 34.375L6.875 27.5" stroke="#C0A080" stroke-width="4" stroke-linecap="round" stroke-linejoin="round"/>
</g>
<path d="M15.816 55.696C16.76 55.696 17.488 55.8 18 56.008C18.512 56.2 18.952 56.408 19.32 56.632C19.512 56.744 19.664 56.832 19.776 56.896C19.904 56.944 20.024 56.968 20.136 56.968C20.296 56.968 20.408 56.88 20.472 56.704C20.552 56.528 20.616 56.264 20.664 55.912H21.216C21.2 56.216 21.176 56.584 21.144 57.016C21.128 57.432 21.112 57.984 21.096 58.672C21.096 59.36 21.096 60.264 21.096 61.384H20.544C20.48 60.552 20.288 59.744 19.968 58.96C19.648 58.176 19.192 57.536 18.6 57.04C18.024 56.528 17.312 56.272 16.464 56.272C15.696 56.272 15.064 56.488 14.568 56.92C14.072 57.352 13.824 57.952 13.824 58.72C13.824 59.36 13.984 59.912 14.304 60.376C14.624 60.824 15.088 61.264 15.696 61.696C16.32 62.128 17.072 62.648 17.952 63.256C18.72 63.752 19.408 64.248 20.016 64.744C20.624 65.24 21.112 65.8 21.48 66.424C21.848 67.048 22.032 67.792 22.032 68.656C22.032 69.712 21.752 70.584 21.192 71.272C20.648 71.96 19.928 72.48 19.032 72.832C18.136 73.168 17.152 73.336 16.08 73.336C15.088 73.336 14.296 73.24 13.704 73.048C13.112 72.856 12.616 72.656 12.216 72.448C11.864 72.224 11.592 72.112 11.4 72.112C11.24 72.112 11.12 72.2 11.04 72.376C10.976 72.552 10.92 72.816 10.872 73.168H10.32C10.352 72.784 10.368 72.336 10.368 71.824C10.384 71.312 10.392 70.648 10.392 69.832C10.408 69 10.416 67.952 10.416 66.688H10.968C11.032 67.744 11.208 68.736 11.496 69.664C11.8 70.576 12.256 71.312 12.864 71.872C13.488 72.432 14.312 72.712 15.336 72.712C15.896 72.712 16.392 72.616 16.824 72.424C17.272 72.216 17.632 71.912 17.904 71.512C18.176 71.112 18.312 70.616 18.312 70.024C18.312 69.352 18.152 68.768 17.832 68.272C17.528 67.776 17.104 67.312 16.56 66.88C16.032 66.448 15.416 66.008 14.712 65.56C13.96 65.064 13.256 64.568 12.6 64.072C11.944 63.576 11.416 63.008 11.016 62.368C10.632 61.728 10.44 60.968 10.44 60.088C10.44 59.08 10.688 58.256 11.184 57.616C11.696 56.96 12.36 56.48 13.176 56.176C14.008 55.856 14.888 55.696 15.816 55.696ZM26.9036 73.168C26.1836 73.168 25.5836 73.032 25.1036 72.76C24.6236 72.488 24.2716 72.128 24.0476 71.68C23.8236 71.216 23.7116 70.712 23.7116 70.168C23.7116 69.48 23.8636 68.92 24.1676 68.488C24.4876 68.056 24.8956 67.704 25.3916 67.432C25.8876 67.16 26.4076 66.936 26.9516 66.76C27.5116 66.584 28.0396 66.416 28.5356 66.256C29.0476 66.08 29.4556 65.88 29.7596 65.656C30.0796 65.416 30.2396 65.112 30.2396 64.744V62.872C30.2396 62.456 30.1676 62.088 30.0236 61.768C29.8956 61.432 29.6876 61.176 29.3996 61C29.1276 60.824 28.7676 60.736 28.3196 60.736C27.9996 60.736 27.6796 60.784 27.3596 60.88C27.0396 60.96 26.7756 61.104 26.5676 61.312C27.0156 61.472 27.3596 61.72 27.5996 62.056C27.8556 62.376 27.9836 62.744 27.9836 63.16C27.9836 63.704 27.7916 64.136 27.4076 64.456C27.0396 64.776 26.5996 64.936 26.0876 64.936C25.5116 64.936 25.0716 64.76 24.7676 64.408C24.4796 64.04 24.3356 63.6 24.3356 63.088C24.3356 62.624 24.4476 62.24 24.6716 61.936C24.9116 61.632 25.2396 61.344 25.6556 61.072C26.1036 60.816 26.6396 60.616 27.2636 60.472C27.9036 60.328 28.5916 60.256 29.3276 60.256C30.0636 60.256 30.7276 60.336 31.3196 60.496C31.9116 60.64 32.4076 60.912 32.8076 61.312C33.1756 61.68 33.4156 62.136 33.5276 62.68C33.6396 63.208 33.6956 63.88 33.6956 64.696V71.224C33.6956 71.624 33.7356 71.904 33.8156 72.064C33.8956 72.208 34.0316 72.28 34.2236 72.28C34.3676 72.28 34.5036 72.24 34.6316 72.16C34.7756 72.08 34.9276 71.984 35.0876 71.872L35.3276 72.28C34.9916 72.568 34.5996 72.792 34.1516 72.952C33.7196 73.096 33.2316 73.168 32.6876 73.168C32.0956 73.168 31.6236 73.088 31.2716 72.928C30.9196 72.752 30.6636 72.52 30.5036 72.232C30.3596 71.944 30.2876 71.608 30.2876 71.224C29.9036 71.832 29.4396 72.312 28.8956 72.664C28.3516 73 27.6876 73.168 26.9036 73.168ZM28.6076 71.632C28.9276 71.632 29.2156 71.56 29.4716 71.416C29.7436 71.256 29.9996 71 30.2396 70.648V65.728C30.0956 65.968 29.8956 66.184 29.6396 66.376C29.3836 66.568 29.1116 66.768 28.8236 66.976C28.5356 67.168 28.2556 67.384 27.9836 67.624C27.7276 67.864 27.5196 68.16 27.3596 68.512C27.1996 68.864 27.1196 69.288 27.1196 69.784C27.1196 70.408 27.2556 70.872 27.5276 71.176C27.7996 71.48 28.1596 71.632 28.6076 71.632ZM40.9095 54.208V70.768C40.9095 71.44 41.0215 71.896 41.2455 72.136C41.4855 72.376 41.8855 72.496 42.4455 72.496V73C42.1415 72.984 41.6855 72.968 41.0775 72.952C40.4695 72.92 39.8535 72.904 39.2295 72.904C38.6055 72.904 37.9735 72.92 37.3335 72.952C36.7095 72.968 36.2375 72.984 35.9175 73V72.496C36.4775 72.496 36.8695 72.376 37.0935 72.136C37.3335 71.896 37.4535 71.44 37.4535 70.768V57.088C37.4535 56.368 37.3415 55.84 37.1175 55.504C36.9095 55.152 36.5095 54.976 35.9175 54.976V54.472C36.4295 54.52 36.9255 54.544 37.4055 54.544C38.0615 54.544 38.6855 54.52 39.2775 54.472C39.8695 54.408 40.4135 54.32 40.9095 54.208ZM46.5866 54.4C47.2586 54.4 47.7866 54.568 48.1706 54.904C48.5706 55.224 48.7706 55.672 48.7706 56.248C48.7706 56.824 48.5706 57.28 48.1706 57.616C47.7866 57.936 47.2586 58.096 46.5866 58.096C45.9146 58.096 45.3786 57.936 44.9786 57.616C44.5946 57.28 44.4026 56.824 44.4026 56.248C44.4026 55.672 44.5946 55.224 44.9786 54.904C45.3786 54.568 45.9146 54.4 46.5866 54.4ZM48.4586 60.328V70.768C48.4586 71.44 48.5706 71.896 48.7946 72.136C49.0346 72.376 49.4346 72.496 49.9946 72.496V73C49.7066 72.984 49.2586 72.968 48.6506 72.952C48.0426 72.92 47.4266 72.904 46.8026 72.904C46.1786 72.904 45.5466 72.92 44.9066 72.952C44.2666 72.968 43.7866 72.984 43.4666 73V72.496C44.0266 72.496 44.4186 72.376 44.6426 72.136C44.8826 71.896 45.0026 71.44 45.0026 70.768V63.208C45.0026 62.488 44.8906 61.96 44.6666 61.624C44.4586 61.272 44.0586 61.096 43.4666 61.096V60.592C43.9786 60.64 44.4746 60.664 44.9546 60.664C45.6266 60.664 46.2506 60.64 46.8266 60.592C47.4186 60.528 47.9626 60.44 48.4586 60.328ZM59.2929 60.256C59.8049 60.256 60.2209 60.368 60.5409 60.592C60.8609 60.8 61.0929 61.072 61.2369 61.408C61.3969 61.744 61.4769 62.096 61.4769 62.464C61.4769 63.056 61.3009 63.544 60.9489 63.928C60.6129 64.296 60.1649 64.48 59.6049 64.48C59.0449 64.48 58.6049 64.344 58.2849 64.072C57.9809 63.784 57.8289 63.408 57.8289 62.944C57.8289 62.496 57.9249 62.128 58.1169 61.84C58.3249 61.536 58.5809 61.28 58.8849 61.072C58.6609 61.008 58.4369 61.016 58.2129 61.096C57.9089 61.144 57.6209 61.272 57.3489 61.48C57.0769 61.672 56.8449 61.92 56.6529 62.224C56.4609 62.512 56.3089 62.832 56.1969 63.184C56.0849 63.52 56.0289 63.848 56.0289 64.168V70.528C56.0289 71.296 56.2129 71.816 56.5809 72.088C56.9649 72.36 57.5329 72.496 58.2849 72.496V73C57.9169 72.984 57.3809 72.968 56.6769 72.952C55.9729 72.92 55.2369 72.904 54.4689 72.904C53.8289 72.904 53.1809 72.92 52.5249 72.952C51.8689 72.968 51.3729 72.984 51.0369 73V72.496C51.5969 72.496 51.9889 72.376 52.2129 72.136C52.4529 71.896 52.5729 71.44 52.5729 70.768V63.208C52.5729 62.488 52.4609 61.96 52.2369 61.624C52.0289 61.272 51.6289 61.096 51.0369 61.096V60.592C51.5489 60.64 52.0449 60.664 52.5249 60.664C53.1969 60.664 53.8209 60.64 54.3969 60.592C54.9889 60.528 55.5329 60.44 56.0289 60.328V62.56C56.2209 62.128 56.4769 61.736 56.7969 61.384C57.1169 61.032 57.4849 60.76 57.9009 60.568C58.3169 60.36 58.7809 60.256 59.2929 60.256Z" fill="#C0A080"/>
<defs>
<clipPath id="clip0_243_37">
<rect width="55" height="55" fill="white"/>
</clipPath>
</defs>
</svg>
